<svg height="512pt" viewBox="-1 0 512 512" width="512pt" xmlns="http://www.w3.org/2000/svg"><path d="m279.957031 428.175781v76.210938c50.3125-4.515625 87.867188-22.339844 87.867188-43.640625v-5.746094" fill="#ea394e"/><path d="m141.84375 455v5.746094c0 21.300781 37.550781 39.125 87.875 43.640625v-76.210938" fill="#ea394e"/><path d="m183.398438 94c11.5625 23.160156 46.320312 34.722656 46.320312 34.722656v349.691406c-40.152344-2.660156-65.914062-11.429687-81.167969-19-11.398437-5.652343-18.542969-17.335937-18.542969-30.050781v-194.925781l-47.296874 170.949219c-3.054688 11.054687-13.613282 18.3125-25.03125 17.234375-10.3125-.972656-21.242188-2.839844-31.441407-6.453125-10.414062-3.695313-16.921875-14.078125-15.652343-25.0625 15.78125-135.738281 62.472656-243.914063 62.472656-243.914063 21.527344-21.527344 50.566406-37.179687 69.667968-46" fill="#fb6572"/><path d="m366.953125 101.191406c19.101563 8.820313 48.136719 24.472656 69.664063 46 0 0 46.691406 108.175782 62.472656 243.914063 1.269531 10.984375-5.238282 21.367187-15.652344 25.0625-10.199219 3.613281-21.128906 5.480469-31.441406 6.453125-11.417969 1.078125-21.976563-6.179688-25.03125-17.234375l-47.296875-170.949219v194.925781c0 12.714844-7.144531 24.398438-18.542969 30.050781-15.253906 7.570313-41.015625 16.339844-81.167969 19v-349.691406s34.757813-11.5625 46.320313-34.722656" fill="#fb6572"/><g fill="#ea394e"><path d="m14.074219 406.433594c-1.859375 9.996094-4.515625 24.453125-6.222657 33.785156-1.117187 6.089844 1.851563 12.191406 7.335938 15.066406 7.546875 3.964844 19.648438 8.449219 35.574219 8.304688 6.835937-.058594 12.636719-5.046875 13.773437-11.789063l5.277344-31.246093"/><path d="m495.601562 406.433594c1.859376 9.996094 4.515626 24.453125 6.222657 33.785156 1.117187 6.089844-1.851563 12.191406-7.335938 15.066406-7.546875 3.964844-19.648437 8.449219-35.574219 8.304688-6.835937-.058594-12.636718-5.046875-13.773437-11.789063l-5.277344-31.246093"/><path d="m200.667969 92.839844-9.753907 19.445312c-47.195312 14.402344-115.980468 43.167969-150.367187 242.558594-5.945313 27.777344-13.621094 52.1875-.6875 65.117188-4.597656-.984376-9.175781-2.222657-13.621094-3.792969-10.414062-3.695313-16.921875-14.078125-15.652343-25.0625 15.78125-135.738281 62.472656-243.914063 62.472656-243.914063 34.902344-34.90625 89.570312-54.351562 89.570312-54.351562zm0 0"/><path d="m483.4375 416.167969c-10.199219 3.613281-21.128906 5.480469-31.441406 6.453125-11.417969 1.078125-21.976563-6.179688-25.03125-17.234375l-47.296875-170.949219c0-19.042969 4.011719-36.050781 13.132812-50.707031l54.476563 208.808593s8.828125 23.628907 36.160156 23.628907zm0 0"/><path d="m162.566406 227.871094v237.53125c-5.417968-1.988282-10.066406-4.027344-14.015625-5.988282-11.398437-5.652343-18.542969-17.335937-18.542969-30.050781v-194.925781c0-16.238281-2.921874-31.007812-9.441406-44.101562 0 0 42 1.816406 42 37.535156zm0 0"/></g><path d="m229.71875 167.207031c-39.636719-8.863281-72.113281-37.414062-86.992188-66.015625-5.664062-10.878906-8.78125-21.761718-8.78125-31.574218 0-40.875 54.128907-62.003907 120.894532-62.003907 66.753906 0 120.878906 21.128907 120.878906 62.003907 0 9.804687-3.113281 20.683593-8.777344 31.566406-14.878906 28.601562-47.347656 57.152344-86.984375 66.023437" fill="#4695bc"/><path d="m326.28125 93.996094c-11.570312 23.160156-46.324219 34.722656-46.324219 34.722656v329.722656c-7.8125 3.296875-16.277343 5.09375-25.128906 5.09375-8.839844 0-17.304687-1.796875-25.109375-5.125v-329.691406s-34.753906-11.5625-46.324219-34.722656c40.949219-35.65625 101.921875-35.660156 142.875-.011719zm0 0" fill="#0e708e"/><path d="m265.890625 79.445312h-22.113281c-4.203125 0-7.613282 3.40625-7.613282 7.613282 0 4.203125 3.410157 7.609375 7.613282 7.609375h22.113281c4.203125 0 7.609375-3.40625 7.609375-7.609375 0-4.207032-3.40625-7.613282-7.609375-7.613282zm0 0"/><path d="m509.3125 438.847656c-1.558594-8.515625-3.902344-21.28125-5.714844-31.050781 2.628906-5.277344 3.773438-11.332031 3.054688-17.570313-15.730469-135.285156-62.574219-244.960937-63.042969-246.050781-.382813-.886719-.929687-1.6875-1.609375-2.367187-19.644531-19.644532-45.03125-34.484375-64.945312-44.234375 4.121093-9.703125 6.277343-19.25 6.277343-27.957031 0-22.453126-13.746093-40.851563-39.753906-53.207032-22.601563-10.734375-53.285156-16.410156-88.738281-16.410156-35.460938 0-66.148438 5.675781-88.75 16.410156-26.011719 12.355469-39.757813 30.753906-39.757813 53.207032 0 8.710937 2.160157 18.261718 6.277344 27.960937-19.894531 9.734375-45.265625 24.5625-64.933594 44.230469-.679687.679687-1.226562 1.480468-1.605469 2.363281-.472656 1.09375-47.316406 110.769531-63.046874 246.0625-.71875 6.234375.425781 12.289063 3.054687 17.5625-1.8125 9.769531-4.15625 22.539063-5.714844 31.050781-1.726562 9.417969 2.808594 18.730469 11.285157 23.179688 8.019531 4.207031 21.144531 9.179687 38.375 9.179687.269531 0 .539062 0 .804687-.003906 10.535156-.09375 19.457031-7.71875 21.214844-18.136719l4.664062-27.605468c6.339844-4.035157 11.210938-10.339844 13.339844-18.042969l32.347656-116.921875v138.867187c0 11.121094 4.355469 21.414063 11.835938 28.964844v2.417969c0 29.503906 47.617187 46.988281 94.808593 51.222656.226563.023438.453126.03125.679688.03125 1.894531 0 3.726562-.707031 5.136719-1.996094 1.578125-1.441406 2.476562-3.480468 2.476562-5.617187v-37.128907c5.691407.671876 11.542969 1.015626 17.496094 1.015626s11.8125-.34375 17.519531-1.015626v37.128907c0 2.136719.898438 4.175781 2.476563 5.617187 1.40625 1.289063 3.242187 1.996094 5.132812 1.996094.226563 0 .457031-.011719.683594-.03125 47.183594-4.234375 94.796875-21.71875 94.796875-51.226562v-2.40625c7.488281-7.550782 11.84375-17.847657 11.84375-28.976563v-39.21875c0-4.203125-3.410156-7.609375-7.613281-7.609375s-7.609375 3.40625-7.609375 7.609375v39.21875c0 9.800781-5.621094 18.921875-14.316406 23.234375-12.859376 6.382812-35.214844 14.382812-70.171876 17.585938v-297.046876c4.695313-1.292968 9.339844-2.867187 13.914063-4.695312v64.222656c0 4.203125 3.40625 7.613282 7.609375 7.613282 4.207031 0 7.613281-3.410157 7.613281-7.613282v-71.390625c21.910157-11.945312 41.007813-29.652343 53.382813-50.15625 16.195312 7.90625 36.191406 19.339844 53.113281 34.015625-13.304687 7.347656-34.898437 23.152344-41.792969 50.828125-1.015625 4.078125 1.46875 8.210938 5.546875 9.226563.617188.152344 1.238281.226562 1.847657.226562 3.414062 0 6.515624-2.3125 7.378906-5.773437 5.835937-23.421875 25.84375-36.6875 36.394531-42.214844 10.449219 26.289063 45.777344 121.261719 58.953125 234.558594.863281 7.488281-3.507812 14.484375-10.632812 17.011719-8.425782 2.984374-18.117188 4.964843-29.613282 6.050781-7.765625.726562-14.90625-4.179688-16.980468-11.683594l-47.296876-170.953125c-1.015624-3.667969-4.582031-6.027344-8.359374-5.511719-3.773438.511719-6.589844 3.734375-6.589844 7.542969v125.5625c0 4.203125 3.410156 7.609375 7.613281 7.609375s7.609375-3.40625 7.609375-7.609375v-69.503906l32.351562 116.917968c2.128907 7.707032 6.996094 14.011719 13.339844 18.042969l4.664063 27.609375c1.757812 10.414063 10.679687 18.042969 21.210937 18.136719.269532 0 .539063.003906.804688.003906 17.234375 0 30.359375-4.972656 38.378906-9.179687 8.472656-4.449219 13.007812-13.761719 11.28125-23.179688zm-452.28125 11.683594c-.527344 3.128906-3.191406 5.417969-6.335938 5.449219-14.46875.101562-25.375-3.972657-31.972656-7.433594-2.539062-1.335937-3.902344-4.128906-3.382812-6.957031 1.027344-5.613282 2.398437-13.082032 3.730468-20.316406 1.464844.796874 3.007813 1.496093 4.625 2.070312 9.625 3.40625 20.507813 5.652344 33.273438 6.855469 1.164062.113281 2.324219.148437 3.472656.132812zm96.382812 19.449219c14.808594 6.175781 37.136719 12.722656 68.691407 15.480469v10.46875c-35.453125-4.347657-59.644531-15.101563-68.691407-25.949219zm202.832032.007812c-9.050782 10.84375-33.234375 21.59375-68.675782 25.9375v-10.464843c31.546876-2.757813 53.867188-9.300782 68.675782-15.472657zm-39.554688-326.234375c-.152344-4.070312-3.492187-7.324218-7.597656-7.324218-4.203125 0-7.613281 3.410156-7.613281 7.613281v7.9375c-4.433594 2.015625-9.074219 3.796875-13.910157 5.304687v-23.316406c10.828126-4.4375 35.4375-16.382812 45.519532-36.570312 1.878906-3.757813.355468-8.332032-3.40625-10.210938-3.761719-1.878906-8.332032-.351562-10.210938 3.410156-9.996094 20.007813-41.605468 30.796875-41.917968 30.898438-3.109376 1.035156-5.207032 3.945312-5.207032 7.222656v323.199219c-5.671875.75-11.539062 1.136719-17.519531 1.136719-5.988281 0-11.84375-.386719-17.5-1.136719v-130.589844c0-4.203125-3.40625-7.613281-7.609375-7.613281s-7.613281 3.410156-7.613281 7.613281v148.851563c-34.953125-3.199219-57.308594-11.199219-70.171875-17.585938-8.695313-4.3125-14.316406-13.429688-14.316406-23.230469v-194.925781c0-3.808594-2.8125-7.03125-6.585938-7.542969-3.78125-.515625-7.347656 1.84375-8.363281 5.511719l-47.296875 170.953125c-2.070313 7.503906-9.21875 12.410156-16.972656 11.683594-11.503907-1.085938-21.191407-3.066407-29.617188-6.050781-7.125-2.527344-11.5-9.523438-10.632812-17.003907 13.179687-113.339843 48.523437-208.34375 58.960937-234.589843 10.539063 5.476562 30.515625 18.671874 36.386719 42.238281.863281 3.460937 3.964844 5.773437 7.378906 5.773437.609375 0 1.230469-.074218 1.847656-.226562 4.078125-1.015625 6.5625-5.148438 5.546875-9.226563-6.894531-27.675781-28.488281-43.480469-41.796875-50.828125 16.9375-14.6875 36.925782-26.113281 53.105469-34.007812 12.375 20.503906 31.472656 38.207031 53.382813 50.152344v71.386718c0 4.207032 3.40625 7.613282 7.613281 7.613282 4.203125 0 7.609375-3.40625 7.609375-7.613282v-64.222656c4.574218 1.828125 9.226562 3.402344 13.925781 4.699219v118.109375c0 4.203125 3.40625 7.609375 7.609375 7.609375s7.613281-3.40625 7.613281-7.609375v-162.527344c0-3.277344-2.097656-6.1875-5.210937-7.222656-.078125-.027344-8.078125-2.714844-17.449219-8.0625-8.332031-4.757813-19.339844-12.582032-24.464844-22.839844-1.878906-3.761719-6.453125-5.285156-10.210937-3.40625-3.761719 1.878906-5.289063 6.449219-3.410156 10.210938 10.085937 20.1875 34.691406 32.128906 45.523437 36.570312v23.316406c-4.84375-1.503906-9.484375-3.289062-13.925781-5.304687v-7.9375c0-4.203125-3.40625-7.613281-7.609375-7.613281-4.109375 0-7.449219 3.257812-7.597657 7.328124-20.882812-13.242187-35.742187-31.171874-43.5-46.078124-5.179687-9.957032-7.917968-19.660157-7.917968-28.0625 0-16.386719 10.453125-29.660157 31.0625-39.453126 20.28125-9.632812 49.480468-14.941406 82.21875-14.941406 32.730468 0 61.925781 5.308594 82.207031 14.941406 20.609375 9.789063 31.058594 23.066407 31.058594 39.453126 0 8.398437-2.738281 18.097656-7.917969 28.050781-7.753906 14.90625-22.613281 32.839843-43.496094 46.085937zm174.261719 304.792969c-6.597656 3.460937-17.46875 7.5625-31.96875 7.433594-3.144531-.03125-5.8125-2.320313-6.339844-5.449219l-3.414062-20.210938c.171875 0 .335937.019532.507812.019532.984375 0 1.976563-.042969 2.972657-.140625 12.765624-1.203125 23.648437-3.449219 33.273437-6.859375 1.617187-.570313 3.15625-1.269532 4.621094-2.066406 1.332031 7.234374 2.703125 14.703124 3.730469 20.316406.519531 2.828125-.839844 5.621094-3.382813 6.957031zm0 0"/><path d="m328.109375 357.21875c-4.191406-.246094-7.796875 2.964844-8.035156 7.164062-.089844 1.558594-1.859375 38.445313 26.023437 66.328126 1.488282 1.488281 3.4375 2.230468 5.382813 2.230468 1.949219 0 3.898437-.742187 5.382812-2.230468 2.972657-2.972657 2.972657-7.792969 0-10.761719-22.894531-22.898438-21.609375-54.28125-21.589843-54.714844.230468-4.191406-2.976563-7.777344-7.164063-8.015625zm0 0"/><path d="m181.582031 357.226562c-4.191406.226563-7.40625 3.8125-7.1875 8.003907.015625.316406 1.351563 31.773437-21.589843 54.71875-2.972657 2.972656-2.972657 7.792969 0 10.761719 1.484374 1.488281 3.433593 2.230468 5.382812 2.230468 1.945312 0 3.894531-.742187 5.378906-2.230468 27.886719-27.882813 26.117188-64.769532 26.027344-66.328126-.242188-4.1875-3.839844-7.378906-8.011719-7.15625zm0 0"/></svg>