<svg height="512pt" viewBox="-93 0 512 512" width="512pt" xmlns="http://www.w3.org/2000/svg"><path d="m317.78125 58.570312c.101562 102.664063-11.113281 318.636719-15.949219 406.941407h-93.46875c-11.851562-76.816407-37.613281-220.957031-45.664062-314.457031-8.050781 93.5-33.8125 237.640624-45.664063 314.457031h-93.476562c-4.835938-88.304688-16.050782-304.277344-15.949219-406.941407.03125-24.605468.699219-42.691406 2.273437-50.964843h305.625c1.574219 8.273437 2.242188 26.359375 2.273438 50.964843zm0 0" fill="#4695bc"/><path d="m235.230469 465.511719h-26.867188c-11.851562-76.816407-37.613281-220.957031-45.664062-314.457031 32.808593 0 65.789062 258.585937 72.53125 314.457031zm0 0" fill="#0e708e"/><path d="m57.421875 465.511719h-33.863281c-4.835938-88.304688-16.050782-304.277344-15.949219-406.941407h62.394531c-15.683594 44.425782-32.65625 210.316407-12.582031 406.941407zm0 0" fill="#0e708e"/><path d="m317.78125 58.570312h-310.171875c.03125-24.605468.699219-42.691406 2.273437-50.964843h305.625c1.574219 8.273437 2.242188 26.359375 2.273438 50.964843zm0 0" fill="#fee372"/><path d="m7.617188 58.574219h62.394531c0 31.714843-25.101563 64.746093-61.207031 74.113281-.761719-28.003906-1.207032-53.371094-1.1875-74.113281zm0 0" fill="#0e708e"/><path d="m317.789062 58.574219c.019532 20.742187-.425781 46.109375-1.175781 74.113281-36.113281-9.367188-61.21875-42.398438-61.21875-74.113281zm0 0" fill="#0e708e"/><path d="m122.734375 475.449219v19.011719c0 5.484374-4.453125 9.933593-9.9375 9.933593h-87.808594c-5.484375 0-9.9375-4.449219-9.9375-9.933593v-19.011719c0-5.496094 4.453125-9.9375 9.9375-9.9375h87.808594c5.484375 0 9.9375 4.441406 9.9375 9.9375zm0 0" fill="#9dcae0"/><path d="m310.347656 475.449219v19.011719c0 5.484374-4.449218 9.933593-9.945312 9.933593h-87.800782c-5.496093 0-9.933593-4.449219-9.933593-9.933593v-19.011719c0-5.496094 4.4375-9.9375 9.933593-9.9375h87.800782c5.496094 0 9.945312 4.441406 9.945312 9.9375zm0 0" fill="#9dcae0"/><path d="m122.734375 475.449219v19.011719c0 5.484374-4.453125 9.933593-9.9375 9.933593h-52.140625c-5.484375 0-9.9375-4.449219-9.9375-9.933593v-19.011719c0-5.496094 4.453125-9.9375 9.9375-9.9375h52.140625c5.484375 0 9.9375 4.441406 9.9375 9.9375zm0 0" fill="#cce6f6"/><path d="m310.347656 475.449219v19.011719c0 5.484374-4.449218 9.933593-9.945312 9.933593h-52.132813c-5.484375 0-9.9375-4.449219-9.9375-9.933593v-19.011719c0-5.496094 4.453125-9.9375 9.9375-9.9375h52.132813c5.496094 0 9.945312 4.441406 9.945312 9.9375zm0 0" fill="#cce6f6"/><path d="m172.503906 151.058594h-19.621094c-3.464843 0-6.277343-2.808594-6.277343-6.277344v-86.207031h32.175781v86.207031c0 3.46875-2.808594 6.277344-6.277344 6.277344zm0 0" fill="#0e708e"/><path d="m195.113281 31.175781c-.179687-.457031-.425781-.902343-.699219-1.308593-.273437-.414063-.585937-.808594-.941406-1.15625-.34375-.351563-.738281-.667969-1.15625-.953126-.414062-.273437-.851562-.503906-1.308594-.6875-.464843-.191406-.941406-.34375-1.429687-.4375-.972656-.203124-1.984375-.203124-2.96875 0-.488281.09375-.964844.246094-1.421875.4375-.453125.183594-.902344.414063-1.316406.6875-.414063.285157-.800782.601563-1.15625.953126-.34375.347656-.667969.742187-.941406 1.15625-.273438.40625-.507813.851562-.699219 1.308593-.195313.457031-.335938.941407-.4375 1.417969-.089844.5-.140625.996094-.140625 1.492188 0 .496093.050781.992187.140625 1.492187.101562.476563.242187.960937.4375 1.417969.191406.457031.425781.902344.699219 1.308594.273437.414062.597656.808593.941406 1.15625 1.421875 1.417968 3.375 2.230468 5.382812 2.230468.5 0 .996094-.050781 1.480469-.152344.488281-.09375.964844-.246093 1.429687-.425781.457032-.195312.894532-.425781 1.308594-.699219.417969-.285156.8125-.601562 1.15625-.953124 1.417969-1.410157 2.230469-3.367188 2.230469-5.375 0-.496094-.050781-.992188-.152344-1.492188-.101562-.476562-.242187-.960938-.4375-1.417969zm0 0"/><path d="m304.5 415.652344c.132812.007812.269531.007812.402344.007812 4.015625 0 7.375-3.148437 7.585937-7.207031 9.917969-191.132813 12.957031-294.742187 12.871094-349.550781.003906-.109375.015625-.21875.015625-.328125 0-.117188-.011719-.234375-.019531-.351563-.0625-29.886718-1.0625-45.09375-2.375-52.035156-.679688-3.589844-3.820313-6.1875-7.472657-6.1875h-305.625c-3.65625 0-6.792968 2.597656-7.472656 6.1875-3.035156 16.023438-3.203125 65.429688-.503906 151.050781.128906 4.195313 3.601562 7.492188 7.835938 7.359375 4.199218-.132812 7.496093-3.640625 7.363281-7.839844-.203125-6.425781-.386719-12.574218-.550781-18.472656 32.601562-10.925781 57.1875-40.285156 60.625-72.105468h61.820312v78.601562c0 7.65625 6.226562 13.882812 13.882812 13.882812h1.492188c-6.609375 70.398438-22.042969 164.945313-34.539062 241.492188-3.417969 20.941406-6.667969 40.851562-9.3125 57.75h-79.765626c-3.375-62-9.132812-173.261719-12.628906-270.847656-.148437-4.195313-3.691406-7.492188-7.871094-7.328125-4.199218.152343-7.476562 3.675781-7.328124 7.875 3.535156 98.691406 9.382812 211.335937 12.742187 273.003906-4.933594 3.109375-8.226563 8.589844-8.226563 14.839844v19.011719c0 9.671874 7.867188 17.539062 17.539063 17.539062h87.804687c9.675782 0 17.542969-7.867188 17.542969-17.539062v-19.011719c0-4.871094-2-9.28125-5.210937-12.460938 2.710937-17.414062 6.121094-38.324219 9.722656-60.382812 9.257812-56.699219 20.121094-123.25 27.855469-182.746094 7.730469 59.496094 18.59375 126.046875 27.851562 182.746094 3.601563 22.054687 7.015625 42.964843 9.726563 60.375-3.21875 3.183593-5.21875 7.59375-5.21875 12.464843v19.015626c0 9.671874 7.867187 17.539062 17.539062 17.539062h87.808594c9.671875 0 17.539062-7.871094 17.539062-17.539062v-19.015626c0-6.25-3.296874-11.730468-8.234374-14.839843.363281-6.660157.757812-13.941407 1.171874-21.773438.222657-4.191406-2.996093-7.769531-7.191406-7.992187-4.203125-.21875-7.773437 2.996094-7.996094 7.191406-.375 7.09375-.734374 13.738281-1.066406 19.875h-79.753906c-2.644531-16.898438-5.898438-36.8125-9.316406-57.75-12.496094-76.550781-27.929688-171.09375-34.539063-241.496094h1.484375c7.652344 0 13.878906-6.226562 13.878906-13.878906v-78.605469h61.824219c3.4375 31.832031 28.035157 61.199219 60.65625 72.117188-1.890625 66.957031-5.773437 157.734375-11.566406 269.371093-.214844 4.195313 3.007813 7.769532 7.203125 7.988282zm-189.375 78.808594c0 1.285156-1.046875 2.332031-2.332031 2.332031h-87.804688c-1.289062 0-2.332031-1.046875-2.332031-2.332031v-19.011719c0-1.289063 1.042969-2.332031 2.332031-2.332031h87.804688c1.289062 0 2.332031 1.042968 2.332031 2.332031zm187.613281 0c0 1.285156-1.046875 2.332031-2.332031 2.332031h-87.808594c-1.285156 0-2.332031-1.046875-2.332031-2.332031v-19.011719c0-1.277344 1.03125-2.316407 2.304687-2.332031h87.867188c1.269531.015624 2.300781 1.054687 2.300781 2.332031zm7.433594-443.492188h-21.597656v-35.761719h20.289062c.761719 7.800781 1.195313 19.785157 1.308594 35.761719zm-36.804687 0h-57.53125v-35.761719h57.53125zm-163.8125-35.761719v35.761719h-57.53125v-35.761719zm-72.738282 0v35.761719h-21.558594c.128907-17.847656.632813-28.957031 1.28125-35.761719zm10.199219 84.027344c-1.714844 2.128906-3.546875 4.148437-5.46875 6.074219v-16.671875h12.613281c-2.035156 3.65625-4.414062 7.210937-7.144531 10.597656zm13.359375-25.804687h-26.433594c-4.199218 0-7.601562 3.40625-7.601562 7.605468v36.132813c-3.277344 1.949219-6.695313 3.636719-10.210938 5.070312-.5625-22.765625-.832031-41.179687-.890625-56.0625h46.621094c-.335937 2.421875-.839844 4.84375-1.484375 7.253907zm110.804688 70.023437h-8.40625c-.027344 0-.050782 0-.074219 0-.023438 0-.050781 0-.074219 0h-8.417969v-77.273437h16.96875v77.273437zm7.601562-92.484375h-54.019531v-35.761719h75.867187v35.761719zm99.59375 48.265625c-8.121094-10.078125-13.25-21.582031-14.847656-33.054687h46.664062c-.066406 15.796874-.367187 34.535156-.902344 56.074218-11.9375-4.855468-22.691406-12.808594-30.914062-23.019531zm0 0"/></svg>